PathFileType	4	(X/Y/Z)	SUBJ51_0_static_RCNL2025.trc
DataRate	CameraRate	NumFrames	NumMarkers	Units	OrigDataRate	OrigDataStartFrame	OrigNumFrames
100	100	7	25	mm	100	32	93
Frame#	Time	R_Shoulder			L_Shoulder			C7			J_Notch			R_Elbow			L_Elbow			R_Wrist			L_Wrist			R_Asis			L_Asis			Sacral			Thoracic			Sternum			R_Thigh_Lateral			R_Knee_Lateral			R_Shank_Lateral			R_Ankle_Lateral			R_Heel			R_Toe			L_Thigh_Lateral			L_Knee_Lateral			L_Shank_Lateral			L_Ankle_Lateral			L_Heel			L_Toe		
		X1	Y1	Z1	X2	Y2	Z2	X3	Y3	Z3	X4	Y4	Z4	X5	Y5	Z5	X6	Y6	Z6	X7	Y7	Z7	X8	Y8	Z8	X9	Y9	Z9	X10	Y10	Z10	X11	Y11	Z11	X12	Y12	Z12	X13	Y13	Z13	X14	Y14	Z14	X15	Y15	Z15	X16	Y16	Z16	X17	Y17	Z17	X18	Y18	Z18	X19	Y19	Z19	X20	Y20	Z20	X21	Y21	Z21	X22	Y22	Z22	X23	Y23	Z23	X24	Y24	Z24	X25	Y25	Z25
32	0.31000000	-205.495560	1505.012085	-33.663147	-218.543182	1517.458374	-481.179596	-300.960449	1611.066162	-266.902191	-148.363937	1507.965942	-265.187103	-250.859802	1231.484009	108.536911	-246.269363	1237.885498	-634.579285	-182.167625	971.022003	112.412411	-202.483864	983.012848	-665.676453	-138.739243	1052.978882	-130.163208	-141.317429	1035.296997	-370.474457	-356.503845	1084.068604	-254.847580	-385.299408	1392.671387	-261.259369	-91.991302	1277.200073	-269.830200	-210.204895	653.167358	-42.004292	-242.500076	529.593262	-89.123764	-294.552704	320.473267	-18.311815	-332.375763	80.938705	-128.775360	-383.380585	73.883560	-184.717468	-174.983704	48.268055	-150.829880	-240.488693	646.908020	-469.172638	-266.783691	529.286072	-420.935547	-313.121613	343.374359	-460.634399	-331.814178	74.018265	-354.178955	-379.398193	80.856224	-294.817322	-173.524765	45.694580	-342.803528
33	0.32000000	-205.502762	1505.019043	-33.661442	-218.456207	1517.420776	-481.286011	-300.963745	1611.067261	-266.902527	-148.315887	1507.981079	-265.198395	-250.828400	1231.510010	108.635742	-246.316895	1237.951904	-634.658691	-182.087082	971.113281	112.474667	-202.508873	983.070465	-665.872467	-138.751801	1052.956543	-130.141876	-141.216904	1035.278931	-370.432892	-356.545593	1084.097168	-254.902023	-385.176270	1392.632812	-261.351562	-91.823463	1277.241577	-269.898438	-210.282669	653.232910	-41.910664	-242.573303	529.645874	-89.154060	-294.549744	320.479950	-18.311773	-332.366760	80.955177	-128.771790	-383.381226	73.884041	-184.700256	-175.074417	48.200932	-150.754059	-240.434082	646.856628	-469.175049	-266.721344	529.274048	-420.929688	-313.078461	343.358551	-460.682953	-331.821777	73.917557	-354.113861	-379.398651	80.858299	-294.815796	-173.558197	45.686588	-342.767944
34	0.33000000	-205.497696	1505.023315	-33.658554	-218.459015	1517.458740	-481.260590	-300.843628	1611.059814	-266.925598	-148.319351	1507.979004	-265.199219	-250.850250	1231.554810	108.634186	-246.250244	1237.972168	-634.745483	-182.070244	971.169434	112.525028	-202.524895	983.095306	-666.026184	-138.438782	1053.093994	-129.975983	-141.200409	1035.299805	-370.432800	-356.564209	1084.098511	-254.914993	-385.166595	1392.639404	-261.365845	-91.635704	1277.338135	-269.823944	-210.267960	653.119629	-41.964626	-242.498459	529.646851	-89.115814	-294.571014	320.529968	-18.310301	-332.377899	80.921112	-128.777298	-383.383514	73.903214	-184.712631	-175.089951	48.198177	-150.751404	-240.134521	646.941406	-469.378906	-266.629181	529.261475	-420.864044	-313.073883	343.402649	-460.669891	-331.815613	73.926537	-354.123260	-379.405975	80.875229	-294.801239	-173.555496	45.691158	-342.766510
35	0.34000000	-205.497131	1505.056396	-33.675037	-218.374176	1517.477173	-481.331970	-300.892029	1611.061035	-267.011322	-148.525986	1507.886108	-264.800446	-250.812088	1231.621826	108.609688	-246.247437	1237.979614	-634.771667	-181.954826	971.264526	112.581760	-202.539642	983.140778	-666.134888	-138.690826	1052.992676	-130.134644	-141.119812	1035.239136	-370.446075	-356.488556	1084.090576	-254.971649	-385.152802	1392.627075	-261.394409	-91.505760	1277.348022	-269.776978	-210.257217	653.126648	-41.926128	-242.485611	529.621521	-89.122147	-294.579102	320.486908	-18.307602	-332.370667	80.956627	-128.769760	-383.384186	73.904915	-184.713867	-175.085602	48.201344	-150.746353	-240.225739	646.846924	-469.134521	-266.538452	529.239807	-420.974243	-313.008759	343.341766	-460.652344	-331.792480	73.961372	-354.130737	-379.395721	80.872604	-294.817505	-173.598038	45.688114	-342.744385
36	0.35000000	-205.404144	1505.115479	-33.738876	-218.297577	1517.419556	-481.316101	-300.806580	1611.013306	-266.996246	-148.219849	1507.985352	-265.164185	-250.694885	1231.607666	108.651360	-246.235138	1238.041260	-634.925415	-181.930000	971.316132	112.717548	-202.516052	983.157806	-666.314880	-138.761154	1052.959106	-130.139999	-141.082977	1035.264526	-370.398468	-356.472107	1084.092773	-254.981552	-385.149963	1392.650879	-261.477539	-91.275742	1277.482300	-269.820282	-210.312973	653.147522	-41.883232	-242.552628	529.664490	-89.063362	-294.551758	320.476440	-18.326427	-332.378754	80.922188	-128.776718	-383.383881	73.904160	-184.713638	-175.083878	48.199722	-150.756561	-239.991898	646.880554	-469.334412	-266.472137	529.183655	-420.999146	-312.953461	343.289948	-460.641479	-331.761780	74.014069	-354.159912	-379.405304	80.875359	-294.802002	-173.599991	45.649471	-342.747070
37	0.36000000	-205.509064	1505.143555	-33.690853	-218.224060	1517.433960	-481.340454	-300.896851	1611.035156	-267.076477	-148.092346	1508.008179	-265.290253	-250.687653	1231.726807	108.653008	-246.241028	1238.046997	-634.950684	-181.848480	971.427032	112.780918	-202.463768	983.169495	-666.426910	-138.315002	1053.114868	-129.974503	-140.988174	1035.265991	-370.326843	-356.336334	1084.113525	-254.967743	-385.074249	1392.603638	-261.453186	-91.044586	1277.531616	-269.926697	-210.262894	653.157715	-41.828106	-242.515549	529.655334	-89.096634	-294.518860	320.490723	-18.344957	-332.300568	81.380371	-128.667557	-383.383759	73.903976	-184.713608	-175.084885	48.198475	-150.753433	-240.044373	646.821777	-469.190186	-266.427948	529.174683	-420.931244	-312.869659	343.386200	-460.724396	-331.761353	74.014015	-354.165314	-379.407227	80.876396	-294.800018	-173.563431	45.682915	-342.748901
38	0.37000000	-205.428177	1505.214722	-33.770996	-218.272736	1517.451538	-481.435211	-300.781677	1611.017456	-267.122040	-148.082260	1508.059814	-265.269165	-250.554977	1231.792969	108.663628	-246.170975	1238.031860	-635.009766	-181.713753	971.425781	112.871372	-202.469894	983.177002	-666.458038	-138.169205	1053.124146	-130.023972	-140.813904	1035.209229	-370.389557	-356.272400	1084.073608	-255.035919	-385.069366	1392.617676	-261.455780	-90.794975	1277.686768	-269.984375	-210.244751	653.121582	-41.856255	-242.502060	529.649475	-89.104156	-294.553284	320.504608	-18.302570	-332.412720	81.014740	-128.713593	-383.399689	73.904808	-184.693420	-175.075073	48.181507	-150.759613	-239.852386	646.848328	-469.383881	-266.389648	529.227478	-420.951324	-312.812225	343.338959	-460.679382	-331.759125	74.011559	-354.186890	-379.406860	80.876228	-294.800476	-173.550629	45.650803	-342.765137
